<svg xmlns="http://www.w3.org/2000/svg" viewBox="0 0 48 48" width="48px" height="48px"><path fill="#FFC107" d="M43.611,20.083H42V20H24v8h11.303c-1.649,4.657-6.08,8-11.303,8c-6.627,0-12-5.373-12-12c0-6.627,5.373-12,12-12c3.059,0,5.842,1.154,8.065,3.09l5.66-5.66C34.046,6.053,29.268,4,24,4C12.955,4,4,12.955,4,24c0,11.045,8.955,20,20,20c11.045,0,20-8.955,20-20C44,22.659,43.862,21.35,43.611,20.083z"/><path fill="#FF3D00" d="M6.306,14.691l6.571,4.819C14.655,15.108,18.961,12,24,12c3.059,0,5.842,1.154,8.065,3.09l5.66-5.66C34.046,6.053,29.268,4,24,4C16.318,4,9.656,8.337,6.306,14.691z"/><path fill="#4CAF50" d="M24,44c5.166,0,9.86-1.977,13.409-5.192l-6.19-4.542C29.988,35.653,27.104,37,24,37c-5.234,0-9.699-3.414-11.385-8.177l-6.19,4.542C8.292,39.673,15.207,44,24,44z"/><path fill="#1976D2" d="M43.611,20.083H42V20H24v8h11.303c-0.792,2.237-2.231,4.166-4.087,5.571c0.001-0.001,0.002-0.001,0.003-0.002l6.19,4.542C39.259,33.078,44,28.347,44,24C44,22.659,43.862,21.35,43.611,20.083z"/></svg>