<?xml version="1.0" encoding="UTF-8" standalone="no"?>
<!DOCTYPE svg PUBLIC "-//W3C//DTD SVG 1.1//EN" "http://www.w3.org/Graphics/SVG/1.1/DTD/svg11.dtd">
<svg width="100%" height="100%" viewBox="0 0 512 512" version="1.1" xmlns="http://www.w3.org/2000/svg" xmlns:xlink="http://www.w3.org/1999/xlink" xml:space="preserve" xmlns:serif="http://www.serif.com/" style="fill-rule:evenodd;clip-rule:evenodd;stroke-linejoin:round;stroke-miterlimit:2;">
    <g transform="matrix(0.548571,0,0,0.64,89.219779,-57)">
        <g transform="matrix(75,0,0,75,62,511)">
            <path d="M0.195,-0L0.001,-0.538L0.148,-0.538L0.309,-0.075L0.239,-0.075L0.407,-0.538L0.539,-0.538L0.702,-0.075L0.632,-0.075L0.798,-0.538L0.936,-0.538L0.741,-0L0.591,-0L0.447,-0.397L0.493,-0.397L0.345,-0L0.195,-0Z" style="fill-rule:nonzero;"/>
        </g>
        <g transform="matrix(75,0,0,75,131.117898,511)">
            <path d="M0.339,0.008C0.277,0.008 0.224,-0.004 0.177,-0.028C0.131,-0.052 0.096,-0.085 0.07,-0.127C0.045,-0.168 0.032,-0.216 0.032,-0.269C0.032,-0.323 0.045,-0.371 0.07,-0.412C0.094,-0.454 0.129,-0.487 0.172,-0.51C0.215,-0.534 0.264,-0.546 0.319,-0.546C0.372,-0.546 0.419,-0.534 0.461,-0.512C0.504,-0.49 0.537,-0.458 0.562,-0.416C0.586,-0.375 0.599,-0.325 0.599,-0.267C0.599,-0.261 0.599,-0.254 0.598,-0.246C0.598,-0.239 0.597,-0.232 0.596,-0.225L0.159,-0.225L0.159,-0.316L0.514,-0.316L0.454,-0.289C0.454,-0.317 0.448,-0.341 0.437,-0.362C0.425,-0.383 0.41,-0.399 0.39,-0.411C0.37,-0.422 0.346,-0.428 0.32,-0.428C0.293,-0.428 0.27,-0.422 0.249,-0.411C0.229,-0.399 0.213,-0.383 0.202,-0.362C0.191,-0.341 0.185,-0.316 0.185,-0.287L0.185,-0.263C0.185,-0.233 0.192,-0.208 0.205,-0.186C0.218,-0.163 0.236,-0.146 0.26,-0.135C0.284,-0.123 0.311,-0.117 0.343,-0.117C0.372,-0.117 0.397,-0.121 0.418,-0.13C0.44,-0.138 0.46,-0.151 0.478,-0.169L0.561,-0.079C0.536,-0.051 0.505,-0.029 0.468,-0.015C0.431,0 0.388,0.008 0.339,0.008Z" style="fill-rule:nonzero;"/>
        </g>
        <g transform="matrix(75,0,0,75,179.213709,511)">
            <rect x="0.052" y="-0.344" width="0.283" height="0.125" style="fill-rule:nonzero;"/>
        </g>
        <g transform="matrix(75,0,0,75,208.942177,511)">
            <path d="M0.325,0.202C0.274,0.202 0.225,0.195 0.178,0.183C0.131,0.171 0.092,0.152 0.061,0.128L0.123,0.016C0.146,0.034 0.175,0.049 0.209,0.06C0.244,0.071 0.279,0.077 0.313,0.077C0.369,0.077 0.409,0.065 0.434,0.04C0.459,0.015 0.471,-0.021 0.471,-0.07L0.471,-0.151L0.481,-0.286L0.479,-0.422L0.479,-0.538L0.627,-0.538L0.627,-0.09C0.627,0.01 0.601,0.083 0.549,0.131C0.497,0.178 0.422,0.202 0.325,0.202ZM0.301,-0.026C0.251,-0.026 0.206,-0.037 0.166,-0.058C0.125,-0.08 0.093,-0.11 0.069,-0.149C0.045,-0.188 0.032,-0.234 0.032,-0.286C0.032,-0.339 0.045,-0.384 0.069,-0.423C0.093,-0.462 0.125,-0.492 0.166,-0.514C0.206,-0.535 0.251,-0.546 0.301,-0.546C0.347,-0.546 0.387,-0.536 0.421,-0.518C0.455,-0.5 0.482,-0.472 0.502,-0.433C0.521,-0.395 0.531,-0.346 0.531,-0.286C0.531,-0.227 0.521,-0.178 0.502,-0.139C0.482,-0.101 0.455,-0.072 0.421,-0.054C0.387,-0.035 0.347,-0.026 0.301,-0.026ZM0.332,-0.153C0.36,-0.153 0.384,-0.159 0.405,-0.17C0.427,-0.181 0.443,-0.197 0.455,-0.217C0.467,-0.237 0.473,-0.26 0.473,-0.286C0.473,-0.313 0.467,-0.336 0.455,-0.356C0.443,-0.375 0.427,-0.391 0.405,-0.402C0.384,-0.412 0.36,-0.418 0.332,-0.418C0.305,-0.418 0.281,-0.412 0.259,-0.402C0.238,-0.391 0.221,-0.375 0.208,-0.356C0.196,-0.336 0.19,-0.313 0.19,-0.286C0.19,-0.26 0.196,-0.237 0.208,-0.217C0.221,-0.197 0.238,-0.181 0.259,-0.17C0.281,-0.159 0.305,-0.153 0.332,-0.153Z" style="fill-rule:nonzero;"/>
        </g>
        <g transform="matrix(75,0,0,75,261.407327,511)">
            <path d="M0.328,0.008C0.271,0.008 0.22,-0.004 0.176,-0.028C0.131,-0.052 0.096,-0.084 0.071,-0.126C0.045,-0.168 0.032,-0.216 0.032,-0.269C0.032,-0.323 0.045,-0.371 0.071,-0.413C0.096,-0.454 0.131,-0.487 0.176,-0.51C0.22,-0.534 0.27,-0.546 0.328,-0.546C0.385,-0.546 0.436,-0.534 0.48,-0.51C0.525,-0.487 0.559,-0.454 0.585,-0.413C0.61,-0.371 0.623,-0.323 0.623,-0.269C0.623,-0.215 0.61,-0.168 0.585,-0.126C0.56,-0.084 0.525,-0.052 0.48,-0.028C0.435,-0.004 0.385,0.008 0.328,0.008ZM0.328,-0.12C0.354,-0.12 0.377,-0.126 0.398,-0.138C0.418,-0.15 0.435,-0.167 0.447,-0.189C0.459,-0.212 0.465,-0.239 0.465,-0.269C0.465,-0.3 0.459,-0.327 0.447,-0.349C0.435,-0.371 0.418,-0.388 0.398,-0.4C0.377,-0.412 0.354,-0.418 0.328,-0.418C0.302,-0.418 0.278,-0.412 0.258,-0.4C0.237,-0.388 0.221,-0.371 0.209,-0.349C0.196,-0.327 0.19,-0.3 0.19,-0.269C0.19,-0.239 0.196,-0.212 0.209,-0.189C0.221,-0.167 0.237,-0.15 0.258,-0.138C0.278,-0.126 0.302,-0.12 0.328,-0.12Z" style="fill-rule:nonzero;"/>
        </g>
        <g transform="matrix(75,0,0,75,310.537627,511)">
            <path d="M0.292,0.008C0.229,0.008 0.179,-0.008 0.144,-0.041C0.109,-0.073 0.091,-0.121 0.091,-0.185L0.091,-0.657L0.247,-0.657L0.247,-0.187C0.247,-0.165 0.253,-0.147 0.265,-0.135C0.277,-0.122 0.293,-0.116 0.314,-0.116C0.339,-0.116 0.36,-0.122 0.377,-0.136L0.419,-0.026C0.403,-0.014 0.384,-0.006 0.362,-0.001C0.339,0.005 0.316,0.008 0.292,0.008ZM0.008,-0.418L0.008,-0.538L0.381,-0.538L0.381,-0.418L0.008,-0.418Z" style="fill-rule:nonzero;"/>
        </g>
        <g transform="matrix(75,0,0,75,343.182162,511)">
        </g>
        <g transform="matrix(75,0,0,75,364.415015,511)">
            <path d="M0.032,0.202C0.008,0.202 -0.015,0.2 -0.037,0.195C-0.059,0.19 -0.078,0.182 -0.093,0.172L-0.051,0.059C-0.033,0.072 -0.011,0.078 0.015,0.078C0.034,0.078 0.05,0.071 0.061,0.059C0.073,0.046 0.079,0.026 0.079,-0L0.079,-0.538L0.235,-0.538L0.235,-0.001C0.235,0.061 0.217,0.11 0.182,0.147C0.147,0.184 0.097,0.202 0.032,0.202ZM0.157,-0.613C0.128,-0.613 0.105,-0.621 0.087,-0.638C0.069,-0.655 0.06,-0.675 0.06,-0.7C0.06,-0.725 0.069,-0.745 0.087,-0.762C0.105,-0.779 0.128,-0.787 0.157,-0.787C0.186,-0.787 0.209,-0.779 0.227,-0.764C0.245,-0.748 0.254,-0.728 0.254,-0.703C0.254,-0.677 0.245,-0.656 0.228,-0.639C0.21,-0.622 0.186,-0.613 0.157,-0.613Z" style="fill:rgb(49,119,255);fill-rule:nonzero;"/>
        </g>
        <g transform="matrix(75,0,0,75,387.428528,511)">
            <path d="M0.328,0.008C0.271,0.008 0.22,-0.004 0.176,-0.028C0.131,-0.052 0.096,-0.084 0.071,-0.126C0.045,-0.168 0.032,-0.216 0.032,-0.269C0.032,-0.323 0.045,-0.371 0.071,-0.413C0.096,-0.454 0.131,-0.487 0.176,-0.51C0.22,-0.534 0.27,-0.546 0.328,-0.546C0.385,-0.546 0.436,-0.534 0.48,-0.51C0.525,-0.487 0.559,-0.454 0.585,-0.413C0.61,-0.371 0.623,-0.323 0.623,-0.269C0.623,-0.215 0.61,-0.168 0.585,-0.126C0.56,-0.084 0.525,-0.052 0.48,-0.028C0.435,-0.004 0.385,0.008 0.328,0.008ZM0.328,-0.12C0.354,-0.12 0.377,-0.126 0.398,-0.138C0.418,-0.15 0.435,-0.167 0.447,-0.189C0.459,-0.212 0.465,-0.239 0.465,-0.269C0.465,-0.3 0.459,-0.327 0.447,-0.349C0.435,-0.371 0.418,-0.388 0.398,-0.4C0.377,-0.412 0.354,-0.418 0.328,-0.418C0.302,-0.418 0.278,-0.412 0.258,-0.4C0.237,-0.388 0.221,-0.371 0.209,-0.349C0.196,-0.327 0.19,-0.3 0.19,-0.269C0.19,-0.239 0.196,-0.212 0.209,-0.189C0.221,-0.167 0.237,-0.15 0.258,-0.138C0.278,-0.126 0.302,-0.12 0.328,-0.12Z" style="fill:rgb(49,119,255);fill-rule:nonzero;"/>
        </g>
        <g transform="matrix(75,0,0,75,436.558828,511)">
            <path d="M0.39,0.008C0.343,0.008 0.302,-0.002 0.268,-0.022C0.234,-0.042 0.208,-0.072 0.19,-0.113C0.172,-0.154 0.163,-0.206 0.163,-0.269C0.163,-0.332 0.172,-0.384 0.191,-0.425C0.21,-0.465 0.237,-0.496 0.271,-0.516C0.305,-0.536 0.345,-0.546 0.39,-0.546C0.44,-0.546 0.486,-0.534 0.526,-0.512C0.567,-0.489 0.599,-0.457 0.622,-0.416C0.646,-0.374 0.658,-0.325 0.658,-0.269C0.658,-0.213 0.646,-0.164 0.622,-0.123C0.599,-0.081 0.567,-0.049 0.526,-0.027C0.486,-0.004 0.44,0.008 0.39,0.008ZM0.072,-0L0.072,-0.742L0.228,-0.742L0.228,-0.429L0.218,-0.27L0.221,-0.11L0.221,-0L0.072,-0ZM0.363,-0.12C0.389,-0.12 0.412,-0.126 0.433,-0.138C0.453,-0.15 0.47,-0.167 0.482,-0.189C0.494,-0.212 0.5,-0.239 0.5,-0.269C0.5,-0.3 0.494,-0.327 0.482,-0.349C0.47,-0.371 0.453,-0.388 0.433,-0.4C0.412,-0.412 0.389,-0.418 0.363,-0.418C0.337,-0.418 0.314,-0.412 0.293,-0.4C0.272,-0.388 0.256,-0.371 0.244,-0.349C0.232,-0.327 0.226,-0.3 0.226,-0.269C0.226,-0.239 0.232,-0.212 0.244,-0.189C0.256,-0.167 0.272,-0.15 0.293,-0.138C0.314,-0.126 0.337,-0.12 0.363,-0.12Z" style="fill:rgb(49,119,255);fill-rule:nonzero;"/>
        </g>
        <g transform="matrix(75,0,0,75,487.809744,511)">
            <path d="M0.035,-0L0.035,-0.094L0.353,-0.47L0.38,-0.418L0.042,-0.418L0.042,-0.538L0.506,-0.538L0.506,-0.444L0.188,-0.068L0.16,-0.12L0.515,-0.12L0.515,-0L0.035,-0Z" style="fill:rgb(49,119,255);fill-rule:nonzero;"/>
        </g>
        <g transform="matrix(75,0,0,75,528.868513,511)">
            <path d="M0.131,0.008C0.104,0.008 0.081,-0.002 0.062,-0.02C0.043,-0.038 0.034,-0.061 0.034,-0.09C0.034,-0.119 0.043,-0.142 0.062,-0.16C0.081,-0.178 0.104,-0.186 0.131,-0.186C0.158,-0.186 0.181,-0.178 0.2,-0.16C0.219,-0.142 0.228,-0.119 0.228,-0.09C0.228,-0.061 0.219,-0.038 0.2,-0.02C0.181,-0.002 0.158,0.008 0.131,0.008Z" style="fill:rgb(49,119,255);fill-rule:nonzero;"/>
        </g>
        <g transform="matrix(75,0,0,75,548.5459,511)">
        </g>
    </g>
</svg>
